<svg version="1.0" xmlns="http://www.w3.org/2000/svg" width="512" height="512" viewBox="0 0 512 512">
<g transform="translate(0,512) scale(0.1,-0.1)" fill="#22c55e" stroke="none">
<path d="M2350 4604 c-19 -2 -78 -9 -130 -15 -311 -36 -644 -142 -925 -294 -863 -467 -1395 -1348 -1395 -2310 0 -962 532 -1843 1395 -2310 281 -152 614 -258 925 -294 52 -6 111 -13 130 -15 19 -2 91 -6 160 -10 69 -4 141 -4 160 0 19 4 91 8 160 10 19 2 78 9 130 15 311 36 644 142 925 294 863 467 1395 1348 1395 2310 0 962 -532 1843 -1395 2310 -281 152 -614 258 -925 294 -52 6 -111 13 -130 15 -19 2 -91 6 -160 10 -69 4 -141 4 -160 0 -19 -4 -91 -8 -160 -10z m320 -339 c19 -2 78 -9 130 -15 249 -29 528 -108 765 -217 742 -341 1235 -1042 1235 -1758 0 -716 -493 -1417 -1235 -1758 -237 -109 -516 -188 -765 -217 -52 -6 -111 -13 -130 -15 -19 -2 -91 -6 -160 -10 -69 -4 -141 -4 -160 0 -19 4 -91 8 -160 10 -19 2 -78 9 -130 15 -249 29 -528 108 -765 217 -742 341 -1235 1042 -1235 1758 0 716 493 1417 1235 1758 237 109 516 188 765 217 52 6 111 13 130 15 19 2 91 6 160 10 69 4 141 4 160 0 19 -4 91 -8 160 -10z"/>
<path d="M2420 3520 c-8 -5 -24 -10 -35 -10 -25 0 -75 -50 -75 -75 0 -11 5 -27 10 -35 6 -8 10 -42 10 -75 l0 -60 -75 -75 c-41 -41 -75 -81 -75 -88 0 -7 34 -47 75 -88 l75 -75 0 -60 c0 -33 -4 -67 -10 -75 -5 -8 -10 -24 -10 -35 0 -25 50 -75 75 -75 11 0 27 5 35 10 8 6 42 10 75 10 l60 0 75 -75 c41 -41 81 -75 88 -75 7 0 47 34 88 75 l75 75 60 0 c33 0 67 4 75 10 8 5 24 10 35 10 25 0 75 50 75 75 0 11 -5 27 -10 35 -6 8 -10 42 -10 75 l0 60 75 75 c41 41 75 81 75 88 0 7 -34 47 -75 88 l-75 75 0 60 c0 33 4 67 10 75 5 8 10 24 10 35 0 25 -50 75 -75 75 -11 0 -27 -5 -35 -10 -8 -6 -42 -10 -75 -10 l-60 0 -75 75 c-41 41 -81 75 -88 75 -7 0 -47 -34 -88 -75 l-75 -75 -60 0 c-33 0 -67 -4 -75 -10z"/>
</g>
</svg>